<svg width="438" height="448" viewBox="0 0 438 448" fill="none" xmlns="http://www.w3.org/2000/svg">
<path d="M213.988 0.25C337.565 0.250148 437.75 100.436 437.75 224C437.75 347.577 337.565 447.75 213.989 447.75C127.095 447.75 51.7815 398.206 14.7266 325.826C9.5395 315.694 17.3271 304.25 28.7549 304.25C35.1182 304.25 40.8514 307.989 43.8301 313.63C52.7284 330.481 64.2001 346.086 78.0566 359.942C114.366 396.252 162.641 416.25 213.988 416.25C265.341 416.25 313.624 396.252 349.938 359.941C386.25 323.631 406.25 275.351 406.25 224C406.25 172.653 386.25 124.375 349.936 88.0625C313.622 51.7497 265.34 31.7501 213.988 31.75C162.643 31.75 114.367 51.7497 78.0576 88.0615C64.2025 101.918 52.7309 117.52 43.834 134.369C40.8552 140.01 35.1216 143.75 28.7578 143.75C17.3296 143.75 9.54191 132.305 14.7295 122.173C51.7853 49.7969 127.098 0.25 213.988 0.25ZM165.039 133.667C169.116 129.59 174.076 129.213 178.305 130.029C182.538 130.846 186.007 132.855 187.04 133.498C187.236 133.62 187.414 133.768 187.583 133.937L274.995 221.349C276.459 222.813 276.459 225.187 274.995 226.651L187.583 314.063C187.415 314.232 187.236 314.38 187.04 314.502C186.007 315.145 182.538 317.153 178.305 317.971C174.076 318.787 169.116 318.411 165.039 314.334C160.962 310.257 160.586 305.297 161.402 301.068C162.22 296.835 164.228 293.366 164.871 292.333C164.993 292.137 165.141 291.959 165.31 291.79L210.094 247.005C212.771 244.327 210.874 239.75 207.088 239.75H18.4502C18.4165 239.75 18.366 239.748 18.2998 239.746C18.1669 239.742 17.9706 239.735 17.7207 239.72C17.2207 239.689 16.5048 239.627 15.6455 239.503C13.9253 239.255 11.6355 238.759 9.34961 237.771C7.06372 236.782 4.79019 235.305 3.08887 233.098C1.39017 230.894 0.25 227.948 0.25 224C0.250003 220.052 1.39018 217.106 3.08887 214.902C4.79019 212.695 7.06373 211.218 9.34961 210.229C11.6355 209.241 13.9253 208.745 15.6455 208.497C16.5048 208.373 17.2207 208.312 17.7207 208.281C17.9706 208.266 18.1669 208.258 18.2998 208.254C18.366 208.252 18.4165 208.25 18.4502 208.25H207.088C210.874 208.25 212.77 203.672 210.093 200.995L165.309 156.211C165.14 156.042 164.992 155.864 164.87 155.668C164.227 154.635 162.218 151.166 161.401 146.933C160.585 142.704 160.962 137.744 165.039 133.667Z" fill="black" stroke="black" stroke-width="0.5"/>
</svg>
