<svg width="159" height="24" viewBox="0 0 159 24" fill="none" xmlns="http://www.w3.org/2000/svg">
<g clip-path="url(#clip0_0_7)">
<rect y="4" width="16" height="16" rx="8" fill="black"/>
</g>
<path d="M33.44 18.5V5.54H35.609V16.466H41.333V18.5H33.44ZM46.5027 18.779C45.7827 18.779 45.1887 18.659 44.7207 18.419C44.2527 18.179 43.8807 17.873 43.6047 17.501C43.3287 17.129 43.1247 16.733 42.9927 16.313C42.8607 15.893 42.7737 15.497 42.7317 15.125C42.6957 14.747 42.6777 14.441 42.6777 14.207V8.78H44.8737V13.46C44.8737 13.76 44.8947 14.099 44.9367 14.477C44.9787 14.849 45.0747 15.209 45.2247 15.557C45.3807 15.899 45.6087 16.181 45.9087 16.403C46.2147 16.625 46.6257 16.736 47.1417 16.736C47.4177 16.736 47.6907 16.691 47.9607 16.601C48.2307 16.511 48.4737 16.358 48.6897 16.142C48.9117 15.92 49.0887 15.617 49.2207 15.233C49.3527 14.849 49.4187 14.363 49.4187 13.775L50.7057 14.324C50.7057 15.152 50.5437 15.902 50.2197 16.574C49.9017 17.246 49.4307 17.783 48.8067 18.185C48.1827 18.581 47.4147 18.779 46.5027 18.779ZM49.6797 18.5V15.485H49.4187V8.78H51.5967V18.5H49.6797ZM65.7982 18.5V12.596C65.7982 11.93 65.6332 11.411 65.3032 11.039C64.9732 10.661 64.5262 10.472 63.9622 10.472C63.6142 10.472 63.3022 10.553 63.0262 10.715C62.7502 10.871 62.5312 11.105 62.3692 11.417C62.2072 11.723 62.1262 12.089 62.1262 12.515L61.1632 11.948C61.1572 11.276 61.3072 10.685 61.6132 10.175C61.9252 9.659 62.3452 9.257 62.8732 8.969C63.4012 8.681 63.9892 8.537 64.6372 8.537C65.7112 8.537 66.5332 8.861 67.1032 9.509C67.6792 10.151 67.9672 10.997 67.9672 12.047V18.5H65.7982ZM54.1072 18.5V8.78H56.0242V11.795H56.2942V18.5H54.1072ZM59.9662 18.5V12.623C59.9662 11.945 59.8012 11.417 59.4712 11.039C59.1412 10.661 58.6912 10.472 58.1212 10.472C57.5692 10.472 57.1252 10.661 56.7892 11.039C56.4592 11.417 56.2942 11.909 56.2942 12.515L55.3222 11.867C55.3222 11.237 55.4782 10.67 55.7902 10.166C56.1022 9.662 56.5222 9.266 57.0502 8.978C57.5842 8.684 58.1812 8.537 58.8412 8.537C59.5672 8.537 60.1732 8.693 60.6592 9.005C61.1512 9.311 61.5172 9.731 61.7572 10.265C62.0032 10.793 62.1262 11.39 62.1262 12.056V18.5H59.9662ZM70.4947 7.304V5.315H72.6637V7.304H70.4947ZM70.4947 18.5V8.78H72.6637V18.5H70.4947ZM82.0826 18.5V13.82C82.0826 13.514 82.0616 13.175 82.0196 12.803C81.9776 12.431 81.8786 12.074 81.7226 11.732C81.5726 11.384 81.3446 11.099 81.0386 10.877C80.7386 10.655 80.3306 10.544 79.8146 10.544C79.5386 10.544 79.2656 10.589 78.9956 10.679C78.7256 10.769 78.4796 10.925 78.2576 11.147C78.0416 11.363 77.8676 11.663 77.7356 12.047C77.6036 12.425 77.5376 12.911 77.5376 13.505L76.2506 12.956C76.2506 12.128 76.4096 11.378 76.7276 10.706C77.0516 10.034 77.5256 9.5 78.1496 9.104C78.7736 8.702 79.5416 8.501 80.4536 8.501C81.1736 8.501 81.7676 8.621 82.2356 8.861C82.7036 9.101 83.0756 9.407 83.3516 9.779C83.6276 10.151 83.8316 10.547 83.9636 10.967C84.0956 11.387 84.1796 11.786 84.2156 12.164C84.2576 12.536 84.2786 12.839 84.2786 13.073V18.5H82.0826ZM75.3416 18.5V8.78H77.2766V11.795H77.5376V18.5H75.3416ZM90.762 18.77C89.79 18.77 88.941 18.551 88.215 18.113C87.489 17.675 86.925 17.072 86.523 16.304C86.127 15.53 85.929 14.642 85.929 13.64C85.929 12.62 86.133 11.726 86.541 10.958C86.949 10.19 87.516 9.59 88.242 9.158C88.968 8.726 89.808 8.51 90.762 8.51C91.74 8.51 92.592 8.729 93.318 9.167C94.044 9.605 94.608 10.211 95.01 10.985C95.412 11.753 95.613 12.638 95.613 13.64C95.613 14.648 95.409 15.539 95.001 16.313C94.599 17.081 94.035 17.684 93.309 18.122C92.583 18.554 91.734 18.77 90.762 18.77ZM90.762 16.736C91.626 16.736 92.268 16.448 92.688 15.872C93.108 15.296 93.318 14.552 93.318 13.64C93.318 12.698 93.105 11.948 92.679 11.39C92.253 10.826 91.614 10.544 90.762 10.544C90.18 10.544 89.7 10.676 89.322 10.94C88.95 11.198 88.674 11.561 88.494 12.029C88.314 12.491 88.224 13.028 88.224 13.64C88.224 14.582 88.437 15.335 88.863 15.899C89.295 16.457 89.928 16.736 90.762 16.736ZM101.241 18.779C100.521 18.779 99.9269 18.659 99.4589 18.419C98.9909 18.179 98.6189 17.873 98.3429 17.501C98.0669 17.129 97.8629 16.733 97.7309 16.313C97.5989 15.893 97.5119 15.497 97.4699 15.125C97.4339 14.747 97.4159 14.441 97.4159 14.207V8.78H99.6119V13.46C99.6119 13.76 99.6329 14.099 99.6749 14.477C99.7169 14.849 99.8129 15.209 99.9629 15.557C100.119 15.899 100.347 16.181 100.647 16.403C100.953 16.625 101.364 16.736 101.88 16.736C102.156 16.736 102.429 16.691 102.699 16.601C102.969 16.511 103.212 16.358 103.428 16.142C103.65 15.92 103.827 15.617 103.959 15.233C104.091 14.849 104.157 14.363 104.157 13.775L105.444 14.324C105.444 15.152 105.282 15.902 104.958 16.574C104.64 17.246 104.169 17.783 103.545 18.185C102.921 18.581 102.153 18.779 101.241 18.779ZM104.418 18.5V15.485H104.157V8.78H106.335V18.5H104.418ZM112.617 18.77C111.417 18.77 110.442 18.5 109.692 17.96C108.942 17.42 108.486 16.661 108.324 15.683L110.538 15.341C110.652 15.821 110.904 16.199 111.294 16.475C111.684 16.751 112.176 16.889 112.77 16.889C113.292 16.889 113.694 16.787 113.976 16.583C114.264 16.373 114.408 16.088 114.408 15.728C114.408 15.506 114.354 15.329 114.246 15.197C114.144 15.059 113.916 14.927 113.562 14.801C113.208 14.675 112.665 14.516 111.933 14.324C111.117 14.108 110.469 13.877 109.989 13.631C109.509 13.379 109.164 13.082 108.954 12.74C108.744 12.398 108.639 11.984 108.639 11.498C108.639 10.892 108.798 10.364 109.116 9.914C109.434 9.464 109.878 9.119 110.448 8.879C111.018 8.633 111.69 8.51 112.464 8.51C113.22 8.51 113.889 8.627 114.471 8.861C115.059 9.095 115.533 9.428 115.893 9.86C116.253 10.292 116.475 10.799 116.559 11.381L114.345 11.777C114.291 11.363 114.102 11.036 113.778 10.796C113.46 10.556 113.034 10.421 112.5 10.391C111.99 10.361 111.579 10.439 111.267 10.625C110.955 10.805 110.799 11.06 110.799 11.39C110.799 11.576 110.862 11.735 110.988 11.867C111.114 11.999 111.366 12.131 111.744 12.263C112.128 12.395 112.698 12.557 113.454 12.749C114.228 12.947 114.846 13.175 115.308 13.433C115.776 13.685 116.112 13.988 116.316 14.342C116.526 14.696 116.631 15.125 116.631 15.629C116.631 16.607 116.274 17.375 115.56 17.933C114.852 18.491 113.871 18.77 112.617 18.77ZM127.002 18.77C126.054 18.77 125.199 18.605 124.437 18.275C123.681 17.945 123.057 17.474 122.565 16.862C122.079 16.244 121.77 15.512 121.638 14.666L123.888 14.324C124.08 15.092 124.473 15.686 125.067 16.106C125.667 16.526 126.357 16.736 127.137 16.736C127.599 16.736 128.034 16.664 128.442 16.52C128.85 16.376 129.18 16.166 129.432 15.89C129.69 15.614 129.819 15.275 129.819 14.873C129.819 14.693 129.789 14.528 129.729 14.378C129.669 14.222 129.579 14.084 129.459 13.964C129.345 13.844 129.195 13.736 129.009 13.64C128.829 13.538 128.619 13.451 128.379 13.379L125.031 12.389C124.743 12.305 124.431 12.194 124.095 12.056C123.765 11.912 123.45 11.717 123.15 11.471C122.856 11.219 122.613 10.901 122.421 10.517C122.235 10.127 122.142 9.647 122.142 9.077C122.142 8.243 122.352 7.544 122.772 6.98C123.198 6.41 123.768 5.984 124.482 5.702C125.202 5.42 126 5.282 126.876 5.288C127.764 5.294 128.556 5.447 129.252 5.747C129.948 6.041 130.53 6.47 130.998 7.034C131.466 7.598 131.796 8.279 131.988 9.077L129.657 9.482C129.561 9.026 129.375 8.639 129.099 8.321C128.829 7.997 128.496 7.751 128.1 7.583C127.71 7.415 127.293 7.325 126.849 7.313C126.417 7.307 126.015 7.373 125.643 7.511C125.277 7.643 124.98 7.835 124.752 8.087C124.53 8.339 124.419 8.633 124.419 8.969C124.419 9.287 124.515 9.548 124.707 9.752C124.899 9.95 125.136 10.109 125.418 10.229C125.706 10.343 125.997 10.439 126.291 10.517L128.613 11.165C128.931 11.249 129.288 11.363 129.684 11.507C130.08 11.651 130.461 11.852 130.827 12.11C131.193 12.368 131.493 12.707 131.727 13.127C131.967 13.547 132.087 14.081 132.087 14.729C132.087 15.401 131.946 15.992 131.664 16.502C131.388 17.006 131.013 17.426 130.539 17.762C130.065 18.098 129.522 18.35 128.91 18.518C128.304 18.686 127.668 18.77 127.002 18.77ZM134.017 18.5L134.035 5.54H136.231V13.46L139.786 8.78H142.495L138.724 13.64L142.819 18.5H139.948L136.231 13.82V18.5H134.017ZM143.901 7.304V5.315H146.07V7.304H143.901ZM143.901 18.5V8.78H146.07V18.5H143.901ZM155.489 18.5V13.82C155.489 13.514 155.468 13.175 155.426 12.803C155.384 12.431 155.285 12.074 155.129 11.732C154.979 11.384 154.751 11.099 154.445 10.877C154.145 10.655 153.737 10.544 153.221 10.544C152.945 10.544 152.672 10.589 152.402 10.679C152.132 10.769 151.886 10.925 151.664 11.147C151.448 11.363 151.274 11.663 151.142 12.047C151.01 12.425 150.944 12.911 150.944 13.505L149.657 12.956C149.657 12.128 149.816 11.378 150.134 10.706C150.458 10.034 150.932 9.5 151.556 9.104C152.18 8.702 152.948 8.501 153.86 8.501C154.58 8.501 155.174 8.621 155.642 8.861C156.11 9.101 156.482 9.407 156.758 9.779C157.034 10.151 157.238 10.547 157.37 10.967C157.502 11.387 157.586 11.786 157.622 12.164C157.664 12.536 157.685 12.839 157.685 13.073V18.5H155.489ZM148.748 18.5V8.78H150.683V11.795H150.944V18.5H148.748Z" fill="#141414"/>
<defs>
<clipPath id="clip0_0_7">
<rect y="4" width="16" height="16" rx="8" fill="white"/>
</clipPath>
</defs>
</svg>
